<svg xmlns="http://www.w3.org/2000/svg" viewBox="0 0 49.1 28.23"><defs><style>.cls-1{isolation:isolate;}.cls-2,.cls-4,.cls-5,.cls-6{fill:#f6ba9e;}.cls-3{fill:#f2a686;}.cls-4{mix-blend-mode:multiply;}.cls-5,.cls-6{mix-blend-mode:screen;}.cls-6{opacity:0.7;}</style></defs><g class="cls-1"><g id="katman_2" data-name="katman 2"><g id="Layer_1" data-name="Layer 1"><path class="cls-2" d="M26.48,6.16V21l-.24,0c-2.44.21-12.07,1-24.1,2.39A21.63,21.63,0,0,1,0,12.94,25.23,25.23,0,0,1,1.36,5C9.69,5.51,18,5.89,25.55,6.1,25.55,6.1,25.9,6.11,26.48,6.16Z"/><path class="cls-3" d="M11.84,21.32c5.43-2.26,4.72-5.94,4.44-7.34a3.74,3.74,0,0,0-2.5-3,13,13,0,0,0-4.35-1c-2.12-.18-4.24-.33-6.36-.53-.9-.08-1.83-.23-2.75-.26A21.48,21.48,0,0,1,1.36,5C9.69,5.51,18,5.89,25.55,6.1c0,0,.35,0,.93.06V21l-.24,0c-2.44.21-12.07,1-24.1,2.39h0C5.53,22.8,8.63,22.65,11.84,21.32Z"/><path class="cls-2" d="M29.38,1.24S31.4.11,31.64,0,44.47,0,46.52,1.66l-12,24.42-7-1.37Z"/><path class="cls-2" d="M18.17,11.48l-.4,2.34s-.72,7.58,3.71,9.68,12.66,2.34,12.66,2.34S41.08,17,39.55,6.72Z"/><path class="cls-3" d="M18.17,11.48l-.4,2.34s-.72,7.58,3.71,9.68,12.66,2.34,12.66,2.34S41.08,17,39.55,6.72Z"/><path class="cls-2" d="M43.62,26.63s-1.48,3-7.54.82-6.49-3.92-5.83-5.62A2.11,2.11,0,0,1,32.76,20c2.15.44,9.36,1.58,10.5,2.46C45.47,24.15,43.62,26.63,43.62,26.63Z"/><path class="cls-4" d="M32.76,20c2.15.44,9.36,1.58,10.5,2.46a2.83,2.83,0,0,1,.79.9c-1.13-.58-3-.16-4.06-.36a31,31,0,0,1-4.81-1.37A6.75,6.75,0,0,0,32.36,21c-1.75.19-2.29,1.73-1.94,3.23a2.4,2.4,0,0,1-.17-2.35A2.11,2.11,0,0,1,32.76,20Z"/><path class="cls-2" d="M47.48,20s-1.4,3.69-7.57,2.22c-6.82-1.63-8.52-3-8.11-4.9a2.81,2.81,0,0,1,2.81-2.57c2.39,0,10.17.29,11.55,1A3.14,3.14,0,0,1,47.48,20Z"/><path class="cls-4" d="M46.16,15.75a4,4,0,0,1,.59.4,14.9,14.9,0,0,0-3.63.2c-2.9.29-5.7-1.43-8.58-.87-1.56.31-2.9,1.43-2.2,3.15a5.18,5.18,0,0,0,.62,1.1,2.21,2.21,0,0,1-1.16-2.44,2.81,2.81,0,0,1,2.81-2.57C37,14.73,44.78,15,46.16,15.75Z"/><path class="cls-2" d="M48.9,12.93S48,16.08,42,15.45c-7-.72-8.5-1.73-8.4-3.72,0,0-.42-2.5,2-2.79s10.08-.82,11.56-.31C50,9.61,48.9,12.93,48.9,12.93Z"/><path class="cls-4" d="M47.09,8.63a2.81,2.81,0,0,1,1.45,1,3.48,3.48,0,0,0-1.7-.51c-3-.19-6.06.4-9,.67-1.75.17-3.85.66-3.89,2.8a1.72,1.72,0,0,0,.15.72,2.09,2.09,0,0,1-.51-1.61s-.42-2.5,2-2.79S45.61,8.12,47.09,8.63Z"/><path class="cls-2" d="M48.71,6s.22,2.62-6.79,2.86S33.34,7.49,33.34,5.5c0,0-.53-2.48,1.82-2.88s10-1.31,11.52-.88C49.61,2.58,48.71,6,48.71,6Z"/><path class="cls-4" d="M46.68,1.74a2.75,2.75,0,0,1,2,2.11,2.11,2.11,0,0,0-.18-.27C47.38,2,45.05,2.1,43.32,2.21c-2.76.17-5.55.31-8.3.65l-.71.06a2.43,2.43,0,0,1,.85-.3C37.52,2.22,45.18,1.31,46.68,1.74Z"/><path class="cls-2" d="M28.26.39s6.1-1.39,10,1.09c3.18,2,4.75,3.87,6,8.1.76,2.56-1.56,10.86-5,10.69C34.38,20,37.61,12,34.71,10.43c0,0-3.63,8.15-12.5,6.94,0,0-4.84-.41-4.6-5A12.8,12.8,0,0,1,28.26.39Z"/><path class="cls-4" d="M25.32,16.94c3.87-.94,7.75-3.78,8.87-7.75,3.27.72,2.47,5.56,2.76,8a3.21,3.21,0,0,0,2.37,3h0C34.38,20,37.61,12,34.71,10.43c0,0-3.63,8.15-12.5,6.94a6.67,6.67,0,0,1-.68-.12A12.56,12.56,0,0,0,25.32,16.94Z"/><path class="cls-4" d="M43.94,12.59a10.61,10.61,0,0,0-3.48-8.73A15.09,15.09,0,0,0,31.05,0a12.5,12.5,0,0,1,7.21,1.45c3.18,2,4.75,3.87,6,8.1A11.05,11.05,0,0,1,43.7,15,19.51,19.51,0,0,0,43.94,12.59Z"/><path class="cls-5" d="M39.1,20s1.49.32,2.79-1.7A12.67,12.67,0,0,0,41.2,4.74S44.35,10.55,42.49,16C42.49,16,42,19.3,39.1,20Z"/><path class="cls-5" d="M43.7,26.32s-1.13,2.3-5.16,1.53a17.24,17.24,0,0,1-6.21-2.3S40.72,29.87,43.7,26.32Z"/><path class="cls-5" d="M47.53,19.38s-1.26,3.6-6.61,2.78-7.18-2.25-7.18-2.25S44.67,24.79,47.53,19.38Z"/><path class="cls-5" d="M49,11.36s.29,3.71-5,3.91C43.94,15.27,48.14,15.07,49,11.36Z"/><path class="cls-5" d="M48.57,5s.63,2.63-4.39,3.44C44.18,8.44,48.12,8,48.57,5Z"/><path class="cls-6" d="M30.77,25.39S20.19,24.29,19,19.81C19,19.81,21.11,22.81,30.77,25.39Z"/></g></g></g></svg>