<svg xmlns="http://www.w3.org/2000/svg" viewBox="0 0 62.5 43.12"><defs><style>.cls-1{isolation:isolate;}.cls-2,.cls-5{fill:#f6ba9e;}.cls-3{fill:#f2a686;}.cls-4{fill:#ed8f6c;}.cls-5{mix-blend-mode:screen;}</style></defs><g class="cls-1"><g id="katman_2" data-name="katman 2"><g id="Layer_1" data-name="Layer 1"><path class="cls-2" d="M26.48,19.23V34.07l-.24,0c-2.44.21-12.07,1-24.1,2.39A21.59,21.59,0,0,1,0,26,25,25,0,0,1,1.36,18.1c8.33.48,16.59.87,24.19,1.07Z"/><path class="cls-3" d="M11.84,34.39c5.43-2.26,4.72-5.94,4.44-7.34a3.75,3.75,0,0,0-2.5-3,12.75,12.75,0,0,0-4.35-1c-2.12-.18-4.24-.32-6.36-.52-.9-.09-1.83-.23-2.75-.26a21.57,21.57,0,0,1,1-4.19c8.33.48,16.59.87,24.19,1.07l.93.06V34.07l-.24,0c-2.44.21-12.07,1-24.1,2.39h0C5.53,35.87,8.63,35.73,11.84,34.39Z"/><path class="cls-2" d="M46.28,41.93a98.59,98.59,0,0,0-10.36-2.5c-2.45-.43-10.15-.66-12.38-1.73-9.32-4.48-7.77-16.22-.45-21.66,8.15-6,8.47-12,10.25-14.68,2.4-3.6,4.47.82,4.27,3-.28,3.12-4,5.65-2.23,9a4.34,4.34,0,0,0,2.52,1.84c1.16.21,6.17-.34,7.48-.45,3.78-.34,7.52-1,11.32-1,1.12,0,2.67-.1,3.61.65,2.18,1.74.49,4.6-1.81,4.84a178,178,0,0,0-18,2.78c1.76.05,11.8.46,13.54.55s8.75.11,8.5,3.2c-.16,2-2.06,3.05-9.19,2.6-4.42-.27-9.5-.3-12.36-.31,5,1.1,9,1.82,11.51,2.21,13,2,7,6.91,3.45,6.29-6.23-1.09-10.55-2-16.27-2.74C45,36,53,37.42,54.39,39.59,55.48,41.33,55.6,45,46.28,41.93Z"/><path class="cls-3" d="M36.75,1.12a2,2,0,0,0-2.24.25c-1.76,1.36-2.36,4.23-3.1,6.22a17.25,17.25,0,0,1-4.83,7.12c-.78.7-1.56,1.39-2.31,2.1-.53.41-1.05.83-1.54,1.27a12.85,12.85,0,0,0-3.55,5A12,12,0,0,0,21,34.55a10.2,10.2,0,0,0,5.08,3.26,19,19,0,0,0,7.26.68c3.31-.48,4.92-3.32,5.44-6.33.13-.43.25-.86.35-1.29.63-2.8,1-6.19.06-9-.3-.86-.84-2.46-1.91-2.64-1.55-.26-1.94,1.52-2.59,2.52-2.5,3.79-5.73,8-10.37,8.84,5.18-2.73,8.84-7.4,9.09-13.46a16.58,16.58,0,0,1,.88-5.9C35,9.46,36.14,7.9,37,6.15a10.75,10.75,0,0,0,.59-1.52c-.46,3-3.87,5.47-2.19,8.72a4.34,4.34,0,0,0,2.52,1.84c1.16.21,6.17-.34,7.48-.45l1-.1-1.1.35c-1.77.6-4.77,1.68-4.69,4,0,1.63,2.08,2.11,3.46,2.25-1.38.25-2.62.51-3.6.75l4,.15a4.42,4.42,0,0,0-2.15,1.23,2.56,2.56,0,0,0,1.07,3.88,11.41,11.41,0,0,0,2.2.82c-1.8,0-3.42,0-4.63,0,1.42.31,2.77.6,4,.85-2.5.28-4.48,1.2-3.73,3.52a3.57,3.57,0,0,0,1.93,1.89c-1.14-.18-2.31-.35-3.54-.5,1,.4,2,.77,3.15,1.13-1.26,0-2.38.4-2.82,1.47-.82,2,.68,3.47,2.48,4.49-2.24-.56-4.75-1.12-6.52-1.43-2.45-.43-10.15-.66-12.38-1.73-9.32-4.48-7.77-16.22-.45-21.66,8.15-6,8.47-12,10.25-14.68C34.7-.68,36-.14,36.75,1.12Z"/><path class="cls-4" d="M23.82,30.74s10.66-3.36,10.69-13.69C34.51,17.05,32.93,26.69,23.82,30.74Z"/><path class="cls-4" d="M38.54,36.49s3.93-8.89,1-17.72A47.38,47.38,0,0,1,38.54,36.49Z"/><path class="cls-5" d="M31.8,38.22S21.56,38.79,19.46,31C19.46,31,21.88,37.17,31.8,38.22Z"/><path class="cls-5" d="M44.41,40.94c3.27.87,8.83,2,10-.22,0,0,.13,2.49-3.57,1.87A57.84,57.84,0,0,1,44.33,41Z"/><path class="cls-5" d="M49.68,35c3.35.56,9,1.13,9.91-1.17,0,0,.36,2.47-3.38,2.2a56.1,56.1,0,0,1-6.6-1Z"/><path class="cls-5" d="M52.25,27.8c3.38.05,9-.25,9.61-2.66,0,0,.73,2.38-3,2.69a57.37,57.37,0,0,1-6.68,0Z"/><path class="cls-5" d="M51.17,19.2c3.38-.26,9-1.07,9.33-3.52,0,0,1,2.31-2.74,2.95a57.15,57.15,0,0,1-6.65.62Z"/><path class="cls-5" d="M33.83,11.06c1.51-3,3.69-8.26,1.77-9.81,0,0,2.46.36,1.12,3.86a57.27,57.27,0,0,1-2.87,6S33.84,11.09,33.83,11.06Z"/></g></g></g></svg>