<svg xmlns="http://www.w3.org/2000/svg" viewBox="0 0 63.84 28.66"><defs><style>.cls-1{isolation:isolate;}.cls-2,.cls-4,.cls-5,.cls-6,.cls-7{fill:#f6ba9e;}.cls-3{fill:#f2a686;}.cls-4{opacity:0.5;}.cls-4,.cls-5{mix-blend-mode:multiply;}.cls-6,.cls-7{mix-blend-mode:screen;}.cls-7{opacity:0.7;}</style></defs><g class="cls-1"><g id="katman_2" data-name="katman 2"><g id="Layer_1" data-name="Layer 1"><path class="cls-2" d="M26.48,6.89V21.73l-.24,0c-2.44.21-12.07,1-24.1,2.39A21.56,21.56,0,0,1,0,13.67,24.9,24.9,0,0,1,1.36,5.76c8.33.48,16.59.86,24.19,1.07C25.55,6.83,25.9,6.84,26.48,6.89Z"/><path class="cls-3" d="M11.84,22.05c5.43-2.26,4.72-5.95,4.44-7.34a3.76,3.76,0,0,0-2.5-3,13,13,0,0,0-4.35-1c-2.12-.18-4.24-.33-6.36-.53-.9-.08-1.83-.23-2.75-.26a21.3,21.3,0,0,1,1-4.18c8.33.48,16.59.86,24.19,1.07,0,0,.35,0,.93.06V21.73l-.24,0c-2.44.21-12.07,1-24.1,2.39h0C5.53,23.53,8.63,23.38,11.84,22.05Z"/><path class="cls-2" d="M42.61,16.12c-1.91-.33-3.4-.42-4.58-1.71C36.4,12.62,36.44,9.25,39,9a193,193,0,0,1,21.64,3.81c4.92,1.29,3,7.18-2.85,5.87C53.34,17.67,42.41,16.06,42.61,16.12Z"/><path class="cls-3" d="M48.7,10.4a3.89,3.89,0,0,0-3.06,1.36c-1.32,1.89-.12,3.84,1.7,4.75a8.94,8.94,0,0,0,1.2.5c-3.3-.53-6-.92-5.93-.89-1.91-.33-3.4-.42-4.58-1.71C36.4,12.62,36.44,9.25,39,9,42.12,9.37,45.48,9.86,48.7,10.4Z"/><path class="cls-2" d="M62.53,2.57C65,3.89,64.06,8.21,59,8.54c-3.54.22-17.62.47-17.18,1.61,1.13,2.92.52,8,.14,8.82A12.56,12.56,0,0,1,39,23.17c-3.51,3-8.77,3.82-13.17,2.64a11.45,11.45,0,0,1-5.66-2.91,10,10,0,0,1-2.92-5.58c-.46-3.34.06-7.28,2.19-10a12.91,12.91,0,0,1,9.08-4.71,54.37,54.37,0,0,1,7-.13c1.87,0,3.73.33,5.6.29s3.55-.2,5.32-.32C50.25,2.2,60.43,1.44,62.53,2.57Z"/><path class="cls-4" d="M41.13,2.79c1.77,0,3.55-.2,5.32-.32l1.5-.1c-1.4.33-3.5.62-4.49,1.55-1.2,1.12-.46,3.22.66,4.2.92.8,2.34.71,3.43,1-3.3.23-5.94.56-5.75,1.06,1.13,2.92.52,8,.14,8.82A12.56,12.56,0,0,1,39,23.17c-3.51,3-8.77,3.82-13.17,2.64a11.45,11.45,0,0,1-5.66-2.91,10,10,0,0,1-2.92-5.58c-.46-3.34.06-7.28,2.19-10a12.91,12.91,0,0,1,9.08-4.71,54.37,54.37,0,0,1,7-.13C37.4,2.55,39.26,2.83,41.13,2.79Z"/><path class="cls-3" d="M42.34,12.54a17.93,17.93,0,0,1-.4,6.43A12.56,12.56,0,0,1,39,23.17c-3.51,3-8.77,3.82-13.17,2.64a11.45,11.45,0,0,1-5.66-2.91,10,10,0,0,1-2.92-5.58c-.46-3.34.06-7.28,2.19-10a12.91,12.91,0,0,1,9.08-4.71c.91-.09,1.81-.13,2.72-.15C36.14,4.4,40.4,7.85,42.34,12.54Z"/><path class="cls-2" d="M42.38,27.37s-1.74,2.81-7.58.14S28.68,23,29.49,21.4c0,0,.58-2.25,2.67-1.62s9.17,2.41,10.23,3.39C44.45,25.05,42.38,27.37,42.38,27.37Z"/><path class="cls-5" d="M32.16,19.78c2.09.63,9.17,2.41,10.23,3.39a2.68,2.68,0,0,1,.71,1c-1.08-.68-2.93-.42-4-.73a30.26,30.26,0,0,1-4.66-1.79,6.73,6.73,0,0,0-2.75-.91c-1.76,0-2.43,1.51-2.21,3a2.37,2.37,0,0,1,0-2.35S30.07,19.15,32.16,19.78Z"/><path class="cls-6" d="M42.49,27.06s-1.33,2.19-5.28,1.07a17.09,17.09,0,0,1-6-2.84S39.2,30.33,42.49,27.06Z"/><path class="cls-2" d="M46.82,21.07s-1.72,3.55-7.73,1.54c-6.66-2.23-8.24-3.7-7.65-5.6a2.81,2.81,0,0,1,3-2.31c2.38.22,10.11,1.2,11.42,2.06A3.13,3.13,0,0,1,46.82,21.07Z"/><path class="cls-5" d="M45.88,16.76a3.15,3.15,0,0,1,.55.45,14.93,14.93,0,0,0-3.63-.14c-2.92,0-5.55-1.92-8.47-1.61-1.59.16-3,1.15-2.48,2.93a5.3,5.3,0,0,0,.53,1.16A2.2,2.2,0,0,1,31.44,17a2.81,2.81,0,0,1,3-2.31C36.84,14.92,44.57,15.9,45.88,16.76Z"/><path class="cls-6" d="M46.92,20.49S45.34,24,40.09,22.68s-7-2.89-7-2.89S43.59,25.62,46.92,20.49Z"/><path class="cls-2" d="M27.31.44A12.11,12.11,0,0,1,30.71,0C35.67.08,40.86,2.71,43,7.39c1.08,2.42,2.19,5.8,1.82,8.49-.34,2.5-1.87,4-3.71,3.67C37.69,19,38,12,34.63,10.55c0,0-3.67,8-12.55,6.74,0,0-4.83-.4-4.59-5A13.38,13.38,0,0,1,27.31.44Z"/><path class="cls-5" d="M44.1,11.32A21.31,21.31,0,0,0,41.89,5.9a15.43,15.43,0,0,0-2.63-3A11.56,11.56,0,0,1,43,7.39c1.08,2.42,2.19,5.8,1.82,8.49,0,.15,0,.31-.08.46A23.68,23.68,0,0,0,44.1,11.32Z"/><path class="cls-5" d="M24,17.41a14.38,14.38,0,0,0,4.57-1.51,13.9,13.9,0,0,0,5.91-6.36,10.7,10.7,0,0,1,3.26,4.24,31.33,31.33,0,0,0,2.36,4.66c.68.88,2.15.68,3.28.45a2.71,2.71,0,0,1-2.27.66C37.69,19,38,12,34.63,10.55,34.63,10.55,31.48,17.36,24,17.41Z"/><path class="cls-6" d="M43.86,17.27a5.87,5.87,0,0,1-.22.6,3.46,3.46,0,0,1-.93.9,5.7,5.7,0,0,0,1.09-3.91c.28-5.75-4.88-11.48-4.88-11.48C44.31,7.83,44.54,15,43.86,17.27Z"/><path class="cls-6" d="M52.78,2.54c1.15-.13,2.5-.2,3.77-.25,5.39-.25,7,.8,6.73,2.92s-3.21,2.84-3.21,2.84,4.33-2,2.17-4.35c-1.14-1.25-5.31-1.32-9-1.13Z"/><path class="cls-6" d="M61.24,13.24c1.81.91,2.2,2,1.67,3.27-.8,2-3.83,1.92-3.83,1.92s4.69-.81,3.22-3.64c-.43-.84-1.87-1.57-3.67-2.17C59.5,12.8,60.37,13,61.24,13.24Z"/><path class="cls-7" d="M30.8,25.92S20.21,25,18.92,20.5C18.92,20.5,21.12,23.47,30.8,25.92Z"/></g></g></g></svg>