<svg xmlns="http://www.w3.org/2000/svg" viewBox="0 0 43.12 62.5"><defs><style>.cls-1{isolation:isolate;}.cls-2,.cls-5{fill:#f6ba9e;}.cls-3{fill:#f2a686;}.cls-4{fill:#ed8f6c;}.cls-5{mix-blend-mode:screen;}</style></defs><g class="cls-1"><g id="katman_2" data-name="katman 2"><g id="Layer_1" data-name="Layer 1"><path class="cls-2" d="M19.23,36H34.07l0,.24c.21,2.44,1,12.07,2.39,24.1A21.59,21.59,0,0,1,26,62.49a25.29,25.29,0,0,1-7.92-1.35c.48-8.33.87-16.59,1.07-24.19C19.17,37,19.19,36.6,19.23,36Z"/><path class="cls-3" d="M34.39,50.66c-2.26-5.44-5.94-4.72-7.34-4.44a3.71,3.71,0,0,0-3,2.5,12.75,12.75,0,0,0-1,4.35c-.18,2.12-.32,4.24-.52,6.36-.09.9-.23,1.83-.26,2.75a21.57,21.57,0,0,1-4.19-1c.48-8.33.87-16.59,1.07-24.19,0,0,0-.35.06-.93H34.07l0,.24c.21,2.44,1,12.07,2.39,24.1h0C35.87,57,35.73,53.87,34.39,50.66Z"/><path class="cls-2" d="M41.93,16.22a98.59,98.59,0,0,0-2.5,10.36C39,29,38.77,36.73,37.7,39c-4.48,9.32-16.22,7.77-21.66.45C10,31.26,4,30.94,1.36,29.16c-3.6-2.4.82-4.47,3-4.27,3.12.28,5.65,4,9,2.23a4.34,4.34,0,0,0,1.84-2.52c.21-1.16-.34-6.17-.45-7.49-.34-3.77-1-7.51-1-11.31,0-1.12-.1-2.67.65-3.62C16.09,0,19,1.7,19.19,4A178,178,0,0,0,22,22.05c.05-1.77.46-11.8.55-13.54s.11-8.75,3.2-8.5c2,.16,3.05,2.05,2.6,9.19-.27,4.42-.3,9.5-.31,12.36,1.1-5,1.82-9,2.21-11.51,2-12.95,6.91-7,6.29-3.45-1.09,6.23-2,10.55-2.74,16.27C36,17.49,37.42,9.48,39.59,8.11,41.33,7,45,6.9,41.93,16.22Z"/><path class="cls-3" d="M1.12,25.74A2,2,0,0,0,1.37,28c1.36,1.76,4.23,2.37,6.22,3.11a17.15,17.15,0,0,1,7.12,4.83c.7.78,1.39,1.56,2.1,2.31.41.53.83,1.05,1.27,1.54a12.85,12.85,0,0,0,5,3.55,12,12,0,0,0,11.52-1.8,10.13,10.13,0,0,0,3.26-5.07,19,19,0,0,0,.68-7.26c-.48-3.32-3.32-4.92-6.33-5.44-.43-.14-.86-.25-1.29-.35-2.8-.63-6.19-1-9-.06-.86.29-2.46.84-2.64,1.91-.26,1.55,1.52,1.93,2.52,2.59,3.79,2.5,8,5.72,8.84,10.37-2.73-5.18-7.4-8.84-13.46-9.09a16.58,16.58,0,0,1-5.9-.88c-1.81-.76-3.37-1.88-5.12-2.72a12.05,12.05,0,0,0-1.52-.6c3,.47,5.47,3.88,8.72,2.2a4.34,4.34,0,0,0,1.84-2.52c.21-1.16-.34-6.17-.45-7.49,0-.33-.07-.66-.1-1,.11.37.23.73.35,1.1.6,1.76,1.68,4.77,4,4.69,1.63-.05,2.11-2.08,2.25-3.46.25,1.38.51,2.62.75,3.6,0-.6.08-2.15.15-4a4.39,4.39,0,0,0,1.23,2.14,2.55,2.55,0,0,0,3.88-1.06,11.41,11.41,0,0,0,.82-2.2c0,1.8,0,3.41,0,4.63.31-1.43.6-2.77.85-4,.28,2.5,1.2,4.48,3.52,3.73a3.57,3.57,0,0,0,1.89-1.93c-.18,1.14-.35,2.31-.5,3.54.4-1,.77-2.05,1.13-3.15,0,1.26.4,2.38,1.47,2.81,2,.82,3.47-.67,4.49-2.47-.56,2.24-1.12,4.75-1.43,6.52C39,29,38.77,36.73,37.7,39c-4.48,9.32-16.22,7.77-21.66.45C10,31.26,4,30.94,1.36,29.16-.68,27.8-.14,26.54,1.12,25.74Z"/><path class="cls-4" d="M30.74,38.68S27.38,28,17.05,28C17.05,28,26.69,29.57,30.74,38.68Z"/><path class="cls-4" d="M36.49,24s-8.89-3.93-17.72-1A47.38,47.38,0,0,1,36.49,24Z"/><path class="cls-5" d="M38.22,30.69S38.79,40.94,31,43C31,43,37.17,40.62,38.22,30.69Z"/><path class="cls-5" d="M40.94,18.09c.87-3.28,2-8.83-.22-10,0,0,2.49-.13,1.87,3.56A56.76,56.76,0,0,1,41,18.16S41,18.11,40.94,18.09Z"/><path class="cls-5" d="M35,12.81c.56-3.34,1.13-9-1.17-9.9,0,0,2.47-.37,2.2,3.37a56,56,0,0,1-1,6.61Z"/><path class="cls-5" d="M27.8,10.25c.05-3.39-.25-9-2.66-9.61,0,0,2.38-.74,2.69,3a57.37,57.37,0,0,1,0,6.68Z"/><path class="cls-5" d="M19.2,11.32C18.94,8,18.13,2.34,15.68,2c0,0,2.31-.95,2.95,2.75a56.75,56.75,0,0,1,.62,6.65Z"/><path class="cls-5" d="M11.06,28.67C8,27.16,2.8,25,1.25,26.9c0,0,.36-2.46,3.86-1.12a57.27,57.27,0,0,1,6,2.87Z"/></g></g></g></svg>