<svg xmlns="http://www.w3.org/2000/svg" viewBox="0 0 49.1 28.23"><defs><style>.cls-1{isolation:isolate;}.cls-2,.cls-4,.cls-5,.cls-6{fill:#f6ba9e;}.cls-3{fill:#f2a686;}.cls-4{mix-blend-mode:multiply;}.cls-5,.cls-6{mix-blend-mode:screen;}.cls-6{opacity:0.7;}</style></defs><g class="cls-1"><g id="katman_2" data-name="katman 2"><g id="Layer_1" data-name="Layer 1"><path class="cls-2" d="M22.61,6.16V21l.25,0c2.44.21,12.06,1,24.1,2.39a21.74,21.74,0,0,0,2.13-10.48A25.23,25.23,0,0,0,47.74,5c-8.33.48-16.59.86-24.2,1.07C23.54,6.1,23.2,6.11,22.61,6.16Z"/><path class="cls-3" d="M37.25,21.32c-5.43-2.26-4.71-5.94-4.43-7.34a3.73,3.73,0,0,1,2.5-3,12.92,12.92,0,0,1,4.34-1c2.12-.18,4.25-.33,6.36-.53.91-.08,1.84-.23,2.75-.26a22.19,22.19,0,0,0-1-4.18c-8.33.48-16.59.86-24.2,1.07,0,0-.34,0-.93.06V21l.25,0c2.44.21,12.06,1,24.1,2.39h0C43.56,22.8,40.47,22.65,37.25,21.32Z"/><path class="cls-2" d="M19.71,1.24S17.7.11,17.45,0,4.63,0,2.57,1.66l12,24.42,7-1.37Z"/><path class="cls-2" d="M30.92,11.48l.41,2.34s.72,7.58-3.71,9.68S15,25.84,15,25.84,8,17,9.55,6.72Z"/><path class="cls-3" d="M30.92,11.48l.41,2.34s.72,7.58-3.71,9.68S15,25.84,15,25.84,8,17,9.55,6.72Z"/><path class="cls-2" d="M5.47,26.63s1.49,3,7.55.82,6.49-3.92,5.82-5.62A2.11,2.11,0,0,0,16.33,20c-2.14.44-9.35,1.58-10.49,2.46C3.62,24.15,5.47,26.63,5.47,26.63Z"/><path class="cls-4" d="M16.33,20c-2.14.44-9.35,1.58-10.49,2.46a2.83,2.83,0,0,0-.79.9c1.13-.58,3-.16,4.06-.36a30.59,30.59,0,0,0,4.8-1.37A6.79,6.79,0,0,1,16.73,21c1.76.19,2.29,1.73,1.94,3.23a2.35,2.35,0,0,0,.17-2.35A2.11,2.11,0,0,0,16.33,20Z"/><path class="cls-2" d="M1.62,20S3,23.66,9.18,22.19c6.82-1.63,8.53-3,8.11-4.9a2.8,2.8,0,0,0-2.8-2.57c-2.39,0-10.17.29-11.55,1A3.14,3.14,0,0,0,1.62,20Z"/><path class="cls-4" d="M2.94,15.75a4.81,4.81,0,0,0-.6.4,15,15,0,0,1,3.64.2c2.9.29,5.7-1.43,8.58-.87,1.56.31,2.9,1.43,2.2,3.15a4.82,4.82,0,0,1-.63,1.1,2.19,2.19,0,0,0,1.16-2.44,2.8,2.8,0,0,0-2.8-2.57C12.1,14.73,4.32,15,2.94,15.75Z"/><path class="cls-2" d="M.19,12.93s.89,3.15,6.92,2.52c7-.72,8.5-1.73,8.41-3.72,0,0,.41-2.5-2-2.79S3.49,8.12,2,8.63C-.88,9.61.19,12.93.19,12.93Z"/><path class="cls-4" d="M2,8.63a2.77,2.77,0,0,0-1.45,1,3.47,3.47,0,0,1,1.69-.51c3-.19,6.07.4,9,.67,1.76.17,3.86.66,3.89,2.8a1.71,1.71,0,0,1-.14.72,2.09,2.09,0,0,0,.51-1.61s.41-2.5-2-2.79S3.49,8.12,2,8.63Z"/><path class="cls-2" d="M.39,6S.17,8.57,7.18,8.81s8.57-1.32,8.57-3.31c0,0,.54-2.48-1.81-2.88s-10-1.31-11.53-.88C-.52,2.58.39,6,.39,6Z"/><path class="cls-4" d="M2.41,1.74A2.75,2.75,0,0,0,.36,3.85l.19-.27C1.72,2,4.05,2.1,5.77,2.21c2.77.17,5.55.31,8.31.65l.71.06a2.43,2.43,0,0,0-.85-.3C11.58,2.22,3.92,1.31,2.41,1.74Z"/><path class="cls-2" d="M20.84.39S14.73-1,10.84,1.48c-3.19,2-4.76,3.87-6,8.1-.77,2.56,1.55,10.86,5,10.69,4.92-.24,1.7-8.31,4.6-9.84,0,0,3.63,8.15,12.5,6.94,0,0,4.84-.41,4.6-5A12.8,12.8,0,0,0,20.84.39Z"/><path class="cls-4" d="M23.77,16.94C19.91,16,16,13.16,14.91,9.19c-3.27.72-2.47,5.56-2.76,8a3.21,3.21,0,0,1-2.37,3h0c4.92-.24,1.7-8.31,4.6-9.84,0,0,3.63,8.15,12.5,6.94,0,0,.27,0,.68-.12A12.62,12.62,0,0,1,23.77,16.94Z"/><path class="cls-4" d="M5.15,12.59A10.62,10.62,0,0,1,8.64,3.86,15.07,15.07,0,0,1,18.05,0a12.47,12.47,0,0,0-7.21,1.45c-3.19,2-4.76,3.87-6,8.1A11.05,11.05,0,0,0,5.4,15,19.53,19.53,0,0,1,5.15,12.59Z"/><path class="cls-5" d="M10,20s-1.49.32-2.78-1.7A12.65,12.65,0,0,1,7.9,4.74S4.75,10.55,6.61,16C6.61,16,7.13,19.3,10,20Z"/><path class="cls-5" d="M5.4,26.32s1.13,2.3,5.16,1.53a17.24,17.24,0,0,0,6.21-2.3S8.38,29.87,5.4,26.32Z"/><path class="cls-5" d="M1.56,19.38S2.83,23,8.18,22.16s7.18-2.25,7.18-2.25S4.43,24.79,1.56,19.38Z"/><path class="cls-5" d="M.11,11.36s-.28,3.71,5,3.91C5.15,15.27,1,15.07.11,11.36Z"/><path class="cls-5" d="M.53,5S-.11,7.63,4.91,8.44C4.91,8.44,1,8,.53,5Z"/><path class="cls-6" d="M18.33,25.39s10.58-1.1,11.8-5.58C30.13,19.81,28,22.81,18.33,25.39Z"/></g></g></g></svg>