<svg xmlns="http://www.w3.org/2000/svg" viewBox="0 0 62.5 43.12"><defs><style>.cls-1{isolation:isolate;}.cls-2,.cls-5{fill:#f6ba9e;}.cls-3{fill:#f2a686;}.cls-4{fill:#ed8f6c;}.cls-5{mix-blend-mode:screen;}</style></defs><g class="cls-1"><g id="katman_2" data-name="katman 2"><g id="Layer_1" data-name="Layer 1"><path class="cls-2" d="M36,19.23V34.07l.24,0c2.44.21,12.07,1,24.1,2.39A21.59,21.59,0,0,0,62.49,26a25.29,25.29,0,0,0-1.35-7.92c-8.33.48-16.59.87-24.19,1.07Z"/><path class="cls-3" d="M50.66,34.39c-5.44-2.26-4.72-5.94-4.44-7.34a3.71,3.71,0,0,1,2.5-3,12.75,12.75,0,0,1,4.35-1c2.12-.18,4.24-.32,6.36-.52.9-.09,1.83-.23,2.75-.26a21.57,21.57,0,0,0-1-4.19c-8.33.48-16.59.87-24.19,1.07l-.93.06V34.07l.24,0c2.44.21,12.07,1,24.1,2.39h0C57,35.87,53.87,35.73,50.66,34.39Z"/><path class="cls-2" d="M16.22,41.93a98.59,98.59,0,0,1,10.36-2.5C29,39,36.73,38.77,39,37.7c9.32-4.48,7.77-16.22.45-21.66C31.26,10,30.94,4,29.16,1.36c-2.4-3.6-4.47.82-4.27,3,.28,3.12,4,5.65,2.23,9a4.34,4.34,0,0,1-2.52,1.84c-1.16.21-6.17-.34-7.49-.45-3.77-.34-7.51-1-11.31-1-1.12,0-2.67-.1-3.62.65C0,16.09,1.7,19,4,19.19A178,178,0,0,1,22.05,22c-1.77.05-11.8.46-13.54.55s-8.75.11-8.5,3.2c.16,2,2.05,3.05,9.19,2.6,4.42-.27,9.5-.3,12.36-.31-5,1.1-9,1.82-11.51,2.21-12.95,2-7,6.91-3.45,6.29,6.23-1.09,10.55-2,16.27-2.74C17.49,36,9.48,37.42,8.11,39.59,7,41.33,6.9,45,16.22,41.93Z"/><path class="cls-3" d="M25.74,1.12A2,2,0,0,1,28,1.37c1.76,1.36,2.37,4.23,3.11,6.22a17.15,17.15,0,0,0,4.83,7.12c.78.7,1.56,1.39,2.31,2.1.53.41,1.05.83,1.54,1.27a12.85,12.85,0,0,1,3.55,5,12,12,0,0,1-1.8,11.52,10.13,10.13,0,0,1-5.07,3.26,19,19,0,0,1-7.26.68c-3.32-.48-4.92-3.32-5.44-6.33-.14-.43-.25-.86-.35-1.29-.63-2.8-1-6.19-.06-9,.29-.86.84-2.46,1.91-2.64,1.55-.26,1.93,1.52,2.59,2.52,2.5,3.79,5.72,8,10.37,8.84-5.18-2.73-8.84-7.4-9.09-13.46a16.58,16.58,0,0,0-.88-5.9c-.76-1.81-1.88-3.37-2.72-5.12a12.05,12.05,0,0,1-.6-1.52c.47,3,3.88,5.47,2.2,8.72a4.34,4.34,0,0,1-2.52,1.84c-1.16.21-6.17-.34-7.49-.45l-1-.1,1.1.35c1.76.6,4.77,1.68,4.69,4-.05,1.63-2.08,2.11-3.46,2.25,1.38.25,2.62.51,3.6.75l-4,.15a4.39,4.39,0,0,1,2.14,1.23,2.55,2.55,0,0,1-1.06,3.88,11.41,11.41,0,0,1-2.2.82c1.8,0,3.41,0,4.63,0-1.43.31-2.77.6-4,.85,2.5.28,4.48,1.2,3.73,3.52a3.57,3.57,0,0,1-1.93,1.89c1.14-.18,2.31-.35,3.54-.5-1,.4-2.05.77-3.15,1.13,1.26,0,2.38.4,2.81,1.47.82,2-.67,3.47-2.47,4.49,2.24-.56,4.75-1.12,6.52-1.43C29,39,36.73,38.77,39,37.7c9.32-4.48,7.77-16.22.45-21.66C31.26,10,30.94,4,29.16,1.36,27.8-.68,26.54-.14,25.74,1.12Z"/><path class="cls-4" d="M38.68,30.74S28,27.38,28,17.05C28,17.05,29.57,26.69,38.68,30.74Z"/><path class="cls-4" d="M24,36.49s-3.93-8.89-1-17.72A47.38,47.38,0,0,0,24,36.49Z"/><path class="cls-5" d="M30.69,38.22S40.94,38.79,43,31C43,31,40.62,37.17,30.69,38.22Z"/><path class="cls-5" d="M18.09,40.94c-3.28.87-8.83,2-10-.22,0,0-.13,2.49,3.56,1.87A56.76,56.76,0,0,0,18.16,41Z"/><path class="cls-5" d="M12.81,35c-3.34.56-9,1.13-9.9-1.17,0,0-.37,2.47,3.37,2.2a56,56,0,0,0,6.61-1Z"/><path class="cls-5" d="M10.25,27.8c-3.39.05-9-.25-9.61-2.66,0,0-.74,2.38,3,2.69a57.37,57.37,0,0,0,6.68,0Z"/><path class="cls-5" d="M11.32,19.2C8,18.94,2.34,18.13,2,15.68c0,0-.95,2.31,2.75,2.95a56.75,56.75,0,0,0,6.65.62Z"/><path class="cls-5" d="M28.67,11.06C27.16,8,25,2.8,26.9,1.25c0,0-2.46.36-1.12,3.86a57.27,57.27,0,0,0,2.87,6S28.66,11.09,28.67,11.06Z"/></g></g></g></svg>