<svg xmlns="http://www.w3.org/2000/svg" viewBox="0 0 63.84 28.66"><defs><style>.cls-1{isolation:isolate;}.cls-2,.cls-4,.cls-5,.cls-6,.cls-7{fill:#f6ba9e;}.cls-3{fill:#f2a686;}.cls-4{opacity:0.5;}.cls-4,.cls-5{mix-blend-mode:multiply;}.cls-6,.cls-7{mix-blend-mode:screen;}.cls-7{opacity:0.7;}</style></defs><g class="cls-1"><g id="katman_2" data-name="katman 2"><g id="Layer_1" data-name="Layer 1"><path class="cls-2" d="M37.36,6.89V21.73l.24,0c2.44.21,12.06,1,24.1,2.39a21.68,21.68,0,0,0,2.13-10.47,25.19,25.19,0,0,0-1.35-7.91c-8.33.48-16.59.86-24.2,1.07C38.28,6.83,37.94,6.84,37.36,6.89Z"/><path class="cls-3" d="M52,22.05c-5.44-2.26-4.72-5.95-4.44-7.34a3.73,3.73,0,0,1,2.5-3,12.92,12.92,0,0,1,4.34-1c2.12-.18,4.25-.33,6.37-.53.9-.08,1.83-.23,2.74-.26a21.27,21.27,0,0,0-1-4.18c-8.33.48-16.59.86-24.2,1.07,0,0-.34,0-.92.06V21.73l.24,0c2.44.21,12.06,1,24.1,2.39h0C58.3,23.53,55.21,23.38,52,22.05Z"/><path class="cls-2" d="M21.23,16.12c1.9-.33,3.4-.42,4.58-1.71,1.62-1.79,1.58-5.16-1-5.41A192.35,192.35,0,0,0,3.16,12.81C-1.76,14.1.17,20,6,18.68,10.5,17.67,21.42,16.06,21.23,16.12Z"/><path class="cls-3" d="M15.13,10.4a3.86,3.86,0,0,1,3.06,1.36c1.33,1.89.12,3.84-1.69,4.75a9.52,9.52,0,0,1-1.2.5c3.3-.53,6-.92,5.93-.89,1.9-.33,3.4-.42,4.58-1.71,1.62-1.79,1.58-5.16-1-5.41C21.71,9.37,18.35,9.86,15.13,10.4Z"/><path class="cls-2" d="M1.3,2.57c-2.45,1.32-1.53,5.64,3.55,6C8.4,8.76,22.47,9,22,10.15c-1.13,2.92-.51,8-.13,8.82a12.27,12.27,0,0,0,2.92,4.2c3.51,3,8.77,3.82,13.17,2.64a11.49,11.49,0,0,0,5.66-2.91,10,10,0,0,0,2.91-5.58C47,14,46.51,10,44.37,7.34a12.89,12.89,0,0,0-9.08-4.71,54.34,54.34,0,0,0-7-.13c-1.86,0-3.73.33-5.59.29s-3.55-.2-5.33-.32C13.58,2.2,3.4,1.44,1.3,2.57Z"/><path class="cls-4" d="M22.71,2.79c-1.78,0-3.55-.2-5.33-.32l-1.49-.1c1.4.33,3.49.62,4.49,1.55,1.2,1.12.45,3.22-.67,4.2-.91.8-2.34.71-3.43,1,3.31.23,5.95.56,5.75,1.06-1.13,2.92-.51,8-.13,8.82a12.27,12.27,0,0,0,2.92,4.2c3.51,3,8.77,3.82,13.17,2.64a11.49,11.49,0,0,0,5.66-2.91,10,10,0,0,0,2.91-5.58C47,14,46.51,10,44.37,7.34a12.89,12.89,0,0,0-9.08-4.71,54.34,54.34,0,0,0-7-.13C26.44,2.55,24.57,2.83,22.71,2.79Z"/><path class="cls-3" d="M21.5,12.54A17.93,17.93,0,0,0,21.9,19a12.27,12.27,0,0,0,2.92,4.2c3.51,3,8.77,3.82,13.17,2.64a11.49,11.49,0,0,0,5.66-2.91,10,10,0,0,0,2.91-5.58C47,14,46.51,10,44.37,7.34a12.89,12.89,0,0,0-9.08-4.71c-.9-.09-1.81-.13-2.72-.15C27.7,4.4,23.44,7.85,21.5,12.54Z"/><path class="cls-2" d="M21.45,27.37s1.75,2.81,7.59.14,6.12-4.48,5.3-6.11c0,0-.57-2.25-2.66-1.62s-9.18,2.41-10.23,3.39C19.39,25.05,21.45,27.37,21.45,27.37Z"/><path class="cls-5" d="M31.68,19.78c-2.1.63-9.18,2.41-10.23,3.39a2.68,2.68,0,0,0-.71,1c1.07-.68,2.93-.42,4-.73a29.87,29.87,0,0,0,4.66-1.79,6.78,6.78,0,0,1,2.75-.91c1.77,0,2.44,1.51,2.22,3a2.34,2.34,0,0,0,0-2.35S33.77,19.15,31.68,19.78Z"/><path class="cls-6" d="M21.35,27.06s1.33,2.19,5.28,1.07a17.21,17.21,0,0,0,6-2.84S24.64,30.33,21.35,27.06Z"/><path class="cls-2" d="M17,21.07s1.72,3.55,7.73,1.54c6.65-2.23,8.23-3.7,7.64-5.6a2.81,2.81,0,0,0-3-2.31C27,14.92,19.27,15.9,18,16.76A3.13,3.13,0,0,0,17,21.07Z"/><path class="cls-5" d="M18,16.76a3.24,3.24,0,0,0-.56.45A15,15,0,0,1,21,17.07c2.92,0,5.55-1.92,8.47-1.61,1.58.16,3,1.15,2.47,2.93a4.84,4.84,0,0,1-.52,1.16A2.21,2.21,0,0,0,32.39,17a2.81,2.81,0,0,0-3-2.31C27,14.92,19.27,15.9,18,16.76Z"/><path class="cls-6" d="M16.92,20.49s1.57,3.48,6.83,2.19,7-2.89,7-2.89S20.25,25.62,16.92,20.49Z"/><path class="cls-2" d="M36.53.44A12.11,12.11,0,0,0,33.13,0C28.16.08,23,2.71,20.87,7.39c-1.09,2.42-2.19,5.8-1.82,8.49.34,2.5,1.87,4,3.71,3.67,3.39-.57,3.06-7.54,6.45-9,0,0,3.67,8,12.54,6.74,0,0,4.84-.4,4.6-5A13.39,13.39,0,0,0,36.53.44Z"/><path class="cls-5" d="M19.73,11.32A21.34,21.34,0,0,1,22,5.9a14.8,14.8,0,0,1,2.63-3,11.48,11.48,0,0,0-3.71,4.53c-1.09,2.42-2.19,5.8-1.82,8.49,0,.15.05.31.08.46A24.19,24.19,0,0,1,19.73,11.32Z"/><path class="cls-5" d="M39.87,17.41A14.3,14.3,0,0,1,35.3,15.9a13.9,13.9,0,0,1-5.91-6.36,10.61,10.61,0,0,0-3.26,4.24,32.32,32.32,0,0,1-2.36,4.66c-.68.88-2.15.68-3.29.45a2.73,2.73,0,0,0,2.28.66c3.39-.57,3.06-7.54,6.45-9C29.21,10.55,32.36,17.36,39.87,17.41Z"/><path class="cls-6" d="M20,17.27a4.18,4.18,0,0,0,.22.6,3.46,3.46,0,0,0,.93.9A5.64,5.64,0,0,1,20,14.86c-.28-5.75,4.88-11.48,4.88-11.48C19.53,7.83,19.29,15,20,17.27Z"/><path class="cls-6" d="M11.05,2.54c-1.14-.13-2.49-.2-3.77-.25C1.9,2,.3,3.09.56,5.21s3.2,2.84,3.2,2.84-4.32-2-2.17-4.35c1.14-1.25,5.32-1.32,9-1.13Z"/><path class="cls-6" d="M2.6,13.24c-1.82.91-2.2,2-1.67,3.27.79,2,3.82,1.92,3.82,1.92s-4.69-.81-3.22-3.64C2,14,3.41,13.22,5.21,12.62,4.33,12.8,3.46,13,2.6,13.24Z"/><path class="cls-7" d="M33,25.92s10.6-1,11.88-5.42C44.91,20.5,42.72,23.47,33,25.92Z"/></g></g></g></svg>