<svg xmlns="http://www.w3.org/2000/svg" viewBox="0 0 28.23 49.1"><defs><style>.cls-1{isolation:isolate;}.cls-2,.cls-4,.cls-5,.cls-6{fill:#f6ba9e;}.cls-3{fill:#f2a686;}.cls-4{mix-blend-mode:multiply;}.cls-5,.cls-6{mix-blend-mode:screen;}.cls-6{opacity:0.7;}</style></defs><g class="cls-1"><g id="katman_2" data-name="katman 2"><g id="Layer_1" data-name="Layer 1"><path class="cls-2" d="M6.16,22.61H21l0,.25c.21,2.44,1,12.06,2.39,24.1a21.74,21.74,0,0,1-10.48,2.13A25.23,25.23,0,0,1,5,47.74c.48-8.33.86-16.59,1.07-24.2C6.1,23.54,6.11,23.2,6.16,22.61Z"/><path class="cls-3" d="M21.32,37.25c-2.26-5.43-5.94-4.71-7.34-4.43a3.73,3.73,0,0,0-3,2.5,12.92,12.92,0,0,0-1,4.34c-.18,2.12-.33,4.25-.53,6.36-.08.91-.23,1.84-.26,2.75a22.19,22.19,0,0,1-4.18-1c.48-8.33.86-16.59,1.07-24.2,0,0,0-.34.06-.93H21l0,.25c.21,2.44,1,12.06,2.39,24.1h0C22.8,43.56,22.65,40.47,21.32,37.25Z"/><path class="cls-2" d="M1.24,19.71S.11,17.7,0,17.45,0,4.63,1.66,2.57l24.42,12-1.37,7Z"/><path class="cls-2" d="M11.48,30.92l2.34.41s7.58.72,9.68-3.71S25.84,15,25.84,15,17,8,6.72,9.55Z"/><path class="cls-3" d="M11.48,30.92l2.34.41s7.58.72,9.68-3.71S25.84,15,25.84,15,17,8,6.72,9.55Z"/><path class="cls-2" d="M26.63,5.47s3,1.49.82,7.55-3.92,6.49-5.62,5.82A2.11,2.11,0,0,1,20,16.33c.44-2.14,1.58-9.35,2.46-10.49C24.15,3.62,26.63,5.47,26.63,5.47Z"/><path class="cls-4" d="M20,16.33c.44-2.14,1.58-9.35,2.46-10.49a2.83,2.83,0,0,1,.9-.79c-.58,1.13-.16,3-.36,4.06a30.59,30.59,0,0,1-1.37,4.8A6.79,6.79,0,0,0,21,16.73c.19,1.76,1.73,2.29,3.23,1.94a2.35,2.35,0,0,1-2.35.17A2.11,2.11,0,0,1,20,16.33Z"/><path class="cls-2" d="M20,1.62S23.66,3,22.19,9.18c-1.63,6.82-3,8.53-4.9,8.11a2.8,2.8,0,0,1-2.57-2.8c0-2.39.29-10.17,1-11.55A3.14,3.14,0,0,1,20,1.62Z"/><path class="cls-4" d="M15.75,2.94a4.81,4.81,0,0,1,.4-.6A15,15,0,0,0,16.35,6c.29,2.9-1.43,5.7-.87,8.58.31,1.56,1.43,2.9,3.15,2.2a4.82,4.82,0,0,0,1.1-.63,2.19,2.19,0,0,1-2.44,1.16,2.8,2.8,0,0,1-2.57-2.8C14.73,12.1,15,4.32,15.75,2.94Z"/><path class="cls-2" d="M12.93.19s3.15.89,2.52,6.92c-.72,7-1.73,8.5-3.72,8.41,0,0-2.5.41-2.79-2S8.12,3.49,8.63,2C9.61-.88,12.93.19,12.93.19Z"/><path class="cls-4" d="M8.63,2a2.77,2.77,0,0,1,1-1.45,3.47,3.47,0,0,0-.51,1.69c-.19,3,.4,6.07.67,9,.17,1.76.66,3.86,2.8,3.89a1.71,1.71,0,0,0,.72-.14,2.09,2.09,0,0,1-1.61.51s-2.5.41-2.79-2S8.12,3.49,8.63,2Z"/><path class="cls-2" d="M6,.39S8.57.17,8.81,7.18,7.49,15.75,5.5,15.75c0,0-2.48.54-2.88-1.81s-1.31-10-.88-11.53C2.58-.52,6,.39,6,.39Z"/><path class="cls-4" d="M1.74,2.41A2.75,2.75,0,0,1,3.85.36L3.58.55C2,1.72,2.1,4.05,2.21,5.77c.17,2.77.31,5.55.65,8.31,0,.21,0,.46.06.71a2.43,2.43,0,0,1-.3-.85C2.22,11.58,1.31,3.92,1.74,2.41Z"/><path class="cls-2" d="M.39,20.84s-1.39-6.11,1.09-10c2-3.19,3.87-4.76,8.1-6,2.56-.77,10.86,1.55,10.69,5-.24,4.92-8.31,1.7-9.84,4.6,0,0,8.15,3.63,6.94,12.5,0,0-.41,4.84-5,4.6A12.8,12.8,0,0,1,.39,20.84Z"/><path class="cls-4" d="M16.94,23.77C16,19.91,13.16,16,9.19,14.91c.72-3.27,5.56-2.47,8-2.76a3.21,3.21,0,0,0,3-2.37h0c-.24,4.92-8.31,1.7-9.84,4.6,0,0,8.15,3.63,6.94,12.5,0,0,0,.27-.12.68A12.62,12.62,0,0,0,16.94,23.77Z"/><path class="cls-4" d="M12.59,5.15A10.62,10.62,0,0,0,3.86,8.64,15.07,15.07,0,0,0,0,18.05a12.47,12.47,0,0,1,1.45-7.21c2-3.19,3.87-4.76,8.1-6A11.05,11.05,0,0,1,15,5.4,19.53,19.53,0,0,0,12.59,5.15Z"/><path class="cls-5" d="M20,10s.32-1.49-1.7-2.78A12.65,12.65,0,0,0,4.74,7.9S10.55,4.75,16,6.61C16,6.61,19.3,7.13,20,10Z"/><path class="cls-5" d="M26.32,5.4s2.3,1.13,1.53,5.16a17.24,17.24,0,0,1-2.3,6.21S29.87,8.38,26.32,5.4Z"/><path class="cls-5" d="M19.38,1.56S23,2.83,22.16,8.18s-2.25,7.18-2.25,7.18S24.79,4.43,19.38,1.56Z"/><path class="cls-5" d="M11.36.11s3.71-.28,3.91,5C15.27,5.15,15.07,1,11.36.11Z"/><path class="cls-5" d="M5,.53S7.63-.11,8.44,4.91C8.44,4.91,8,1,5,.53Z"/><path class="cls-6" d="M25.39,18.33s-1.1,10.58-5.58,11.8C19.81,30.13,22.81,28,25.39,18.33Z"/></g></g></g></svg>